<svg width="32" height="32" viewBox="0 0 32 32" fill="none" xmlns="http://www.w3.org/2000/svg">
<path d="M0 16C0 7.16344 7.16344 0 16 0C24.8366 0 32 7.16344 32 16C32 24.8366 24.8366 32 16 32C7.16344 32 0 24.8366 0 16ZM15 2.15311C13.6611 2.56256 12.3292 3.79445 11.2255 5.86397C10.8799 6.51189 10.566 7.22726 10.29 7.99999H15V2.15311ZM8.17908 7.99999C8.53592 6.88278 8.96651 5.84957 9.46078 4.9228C9.81822 4.2526 10.2172 3.62482 10.6545 3.0567C8.16238 4.08707 6.03258 5.81625 4.50937 7.99999H8.17908ZM7.0169 15C7.07638 13.2463 7.29139 11.5634 7.64001 9.99999H3.34725C2.61865 11.5337 2.16071 13.221 2.03516 15H7.0169ZM9.69372 9.99999C9.32012 11.5299 9.08303 13.2156 9.01812 15H15V9.99999H9.69372ZM17 9.99999V15H22.9819C22.917 13.2156 22.6799 11.5299 22.3063 9.99999H17ZM9.01812 17C9.08303 18.7844 9.32012 20.47 9.69372 22H15V17H9.01812ZM17 17V22H22.3063C22.6799 20.47 22.917 18.7844 22.9819 17H17ZM10.29 24C10.566 24.7727 10.8799 25.4881 11.2255 26.136C12.3292 28.2055 13.6611 29.4374 15 29.8469V24H10.29ZM10.6545 28.9433C10.2173 28.3752 9.81822 27.7474 9.46078 27.0772C8.96651 26.1504 8.53592 25.1172 8.17908 24H4.50937C6.03258 26.1837 8.16238 27.9129 10.6545 28.9433ZM7.64001 22C7.29139 20.4366 7.07638 18.7536 7.0169 17H2.03516C2.16071 18.779 2.61865 20.4662 3.34725 22H7.64001ZM21.3455 28.9433C23.8376 27.9129 25.9674 26.1837 27.4906 24H23.8209C23.4641 25.1172 23.0335 26.1504 22.5392 27.0772C22.1818 27.7474 21.7827 28.3752 21.3455 28.9433ZM17 24V29.8469C18.3388 29.4374 19.6707 28.2055 20.7745 26.136C21.12 25.4881 21.434 24.7727 21.71 24H17ZM24.36 22H28.6527C29.3813 20.4662 29.8393 18.779 29.9648 17H24.9831C24.9236 18.7536 24.7086 20.4366 24.36 22ZM29.9648 15C29.8393 13.221 29.3813 11.5337 28.6527 9.99999H24.36C24.7086 11.5634 24.9236 13.2463 24.9831 15H29.9648ZM22.5392 4.9228C23.0335 5.84957 23.4641 6.88278 23.8209 7.99999H27.4906C25.9674 5.81625 23.8376 4.08707 21.3455 3.0567C21.7827 3.62482 22.1818 4.2526 22.5392 4.9228ZM21.71 7.99999C21.434 7.22726 21.12 6.51189 20.7745 5.86397C19.6707 3.79445 18.3388 2.56256 17 2.15311V7.99999H21.71Z" fill="#2AE0E9" fill-opacity="0.7"/>
</svg>
